<svg version="1.1" id="Layer_1" xmlns="http://www.w3.org/2000/svg" xmlns:xlink="http://www.w3.org/1999/xlink" x="0px" y="0px"
	 viewBox="0 0 85 56.7" enable-background="new 0 0 85 56.7" xml:space="preserve">
<g>
	<rect x="0" y="0" fill="#3B96D2" width="85" height="56.7"/>
	<path fill="#ECEFF0" d="M85,0H74.4L52.2,14.8c0-6.2,0-14.8,0-14.8H32.7c0,0,0,9.1,0,15.4L9.3,0H0v7.7l16.8,11.1
		c-8.4,0-16.8,0-16.8,0v19.6c0,0,8.3,0,16.7,0L0,49.5v7.2h11l21.7-14.5c0,6.1,0,14.5,0,14.5h19.5c0,0,0-8.6,0-14.8l22.4,14.8H85
		v-7.1L68,38.4c8.5,0,17.1,0,17.1,0V18.7c0,0-8.5,0-17,0L85,7.4V0z"/>
	<g>
		<g>
			<path fill="#E54C3C" d="M27.4,18.7L0,0v4.9l20.5,13.8C22.9,18.7,25.3,18.7,27.4,18.7z"/>
			<path fill="#E54C3C" d="M57.7,38.4L85,56.7l0,0v-4.6L64.6,38.4C62.1,38.4,59.8,38.4,57.7,38.4z"/>
			<path fill="#E54C3C" d="M32.7,38.4c-1.3,0-3.2,0-5.6,0L0,56.7l0,0h6.5l26.2-17.4C32.7,39,32.7,38.7,32.7,38.4z"/>
			<path fill="#E54C3C" d="M52.2,18.7c1.2,0,3,0,5.2,0L85,0.5V0h-6.2L52.2,17.6C52.2,18,52.2,18.4,52.2,18.7z"/>
		</g>
	</g>
	<polygon fill="#E54C3C" points="85,22.9 48.1,22.9 48.1,0 36.9,0 36.9,22.9 0,22.9 0,34.2 36.9,34.2 36.9,56.7 48.1,56.7
		48.1,34.2 85,34.2 	"/>
</g>
</svg>
