<?xml version="1.0" standalone="no"?>
<!DOCTYPE svg PUBLIC "-//W3C//DTD SVG 20010904//EN"
 "http://www.w3.org/TR/2001/REC-SVG-20010904/DTD/svg10.dtd">
<svg version="1.0" xmlns="http://www.w3.org/2000/svg"
 width="621.000000pt" height="621.000000pt" viewBox="0 0 621.000000 621.000000"
 preserveAspectRatio="xMidYMid meet">
<metadata>
Created by potrace 1.11, written by Peter Selinger 2001-2013
</metadata>
<g transform="translate(0.000000,621.000000) scale(0.100000,-0.100000)"
fill="#000000" stroke="none">
<path d="M2925 5976 c-204 -34 -371 -103 -530 -220 -93 -68 -1864 -1833 -1938
-1932 -64 -85 -150 -253 -181 -352 -116 -373 -52 -764 177 -1077 69 -94 1828
-1858 1918 -1923 261 -189 545 -271 837 -242 233 23 431 100 617 238 84 63
1861 1841 1923 1925 63 85 135 222 173 332 99 287 77 629 -59 905 -87 176 -87
176 -1071 1161 -796 796 -949 944 -1021 991 -149 97 -273 149 -435 183 -107
23 -309 28 -410 11z m1435 -1338 l-1 -323 -910 -1145 c-501 -630 -919 -1157
-930 -1172 l-20 -28 700 0 701 0 0 350 0 350 256 0 257 0 -7 -31 c-3 -17 -6
-287 -6 -600 l0 -569 -1310 0 -1310 0 0 320 0 321 877 1122 c482 617 894 1143
915 1168 21 26 38 50 38 53 0 3 -286 6 -635 6 l-635 0 0 -320 0 -320 -255 0
-255 0 0 570 0 570 1265 0 1265 0 0 -322z"/>
</g>
</svg>
